<svg width="100%" height="100%" viewBox="0 0 120 120" fill="none" xmlns="http://www.w3.org/2000/svg">
<rect width="120" height="120" fill="#0052FF"/>
<path fill-rule="evenodd" clip-rule="evenodd" d="M86.4 78.6001C86.4 82.9079 82.9078 86.4001 78.6 86.4001C74.2921 86.4001 70.8 82.9079 70.8 78.6001C70.8 74.2923 74.2921 70.8001 78.6 70.8001C82.9078 70.8001 86.4 74.2923 86.4 78.6001ZM60 21.6001C38.7919 21.6001 21.6 38.792 21.6 60.0001C21.6 81.2082 38.7919 98.4001 60 98.4001C67.1423 98.4001 73.8315 96.4487 79.5671 93.0622C79.2505 92.9568 78.9287 92.9001 78.6 92.9001C70.7023 92.9001 64.3 86.4978 64.3 78.6001C64.3 70.7024 70.7023 64.3001 78.6 64.3001C86.4977 64.3001 92.9 70.7024 92.9 78.6001C92.9 78.9288 92.8433 79.2506 92.7379 79.5672C96.1244 73.8316 98.4 67.1424 98.4 60.0001C98.4 38.792 81.2081 21.6001 60 21.6001Z" fill="white"/>
</svg>
